<svg width="46" height="42" viewBox="0 0 46 42" fill="none" xmlns="http://www.w3.org/2000/svg">
<path d="M13.628 27V16.792L11.46 18.096V16.776L13.628 15.48H14.82V27H13.628ZM21.3664 27.24C20.6464 27.24 20.009 27.096 19.4544 26.808C18.905 26.52 18.473 26.1173 18.1584 25.6C17.849 25.0773 17.6944 24.4667 17.6944 23.768C17.6944 23.0533 17.8677 22.4187 18.2144 21.864C18.561 21.304 19.089 20.88 19.7984 20.592L19.7824 21.056C19.1904 20.8373 18.7397 20.48 18.4304 19.984C18.121 19.488 17.9664 18.9387 17.9664 18.336C17.9664 17.696 18.113 17.1467 18.4064 16.688C18.6997 16.224 19.0997 15.8667 19.6064 15.616C20.1184 15.3653 20.705 15.24 21.3664 15.24C22.0277 15.24 22.6144 15.3653 23.1264 15.616C23.6384 15.8667 24.041 16.224 24.3344 16.688C24.6277 17.1467 24.7744 17.696 24.7744 18.336C24.7744 18.9387 24.625 19.4853 24.3264 19.976C24.033 20.4667 23.5824 20.8267 22.9744 21.056L22.9344 20.592C23.6437 20.8747 24.1744 21.296 24.5264 21.856C24.8837 22.416 25.0624 23.0533 25.0624 23.768C25.0624 24.4667 24.905 25.0773 24.5904 25.6C24.2757 26.1173 23.841 26.52 23.2864 26.808C22.7317 27.096 22.0917 27.24 21.3664 27.24ZM21.3664 26.112C22.0917 26.112 22.681 25.912 23.1344 25.512C23.5877 25.1067 23.8144 24.5253 23.8144 23.768C23.8144 23 23.5904 22.4187 23.1424 22.024C22.6944 21.624 22.1024 21.424 21.3664 21.424C20.6304 21.424 20.041 21.624 19.5984 22.024C19.1557 22.4187 18.9344 23 18.9344 23.768C18.9344 24.5253 19.1584 25.1067 19.6064 25.512C20.0544 25.912 20.641 26.112 21.3664 26.112ZM21.3664 20.288C22.0064 20.288 22.5264 20.1253 22.9264 19.8C23.3264 19.4693 23.5264 18.9813 23.5264 18.336C23.5264 17.6907 23.3264 17.208 22.9264 16.888C22.5264 16.5627 22.0064 16.4 21.3664 16.4C20.7264 16.4 20.2064 16.5627 19.8064 16.888C19.4117 17.208 19.2144 17.6907 19.2144 18.336C19.2144 18.9813 19.4117 19.4693 19.8064 19.8C20.2064 20.1253 20.7264 20.288 21.3664 20.288ZM30.1276 24.896V21.744H26.9756V20.736H30.1276V17.584H31.1356V20.736H34.2796V21.744H31.1356V24.896H30.1276Z" fill="white"/>
<rect x="1" y="0.5" width="44" height="41" rx="20.5" stroke="white"/>
</svg>
