<svg width="26" height="26" viewBox="0 0 26 26" fill="none" xmlns="http://www.w3.org/2000/svg">
<path d="M18.0556 2.88867H7.94444C7.56135 2.88867 7.19395 3.04085 6.92307 3.31174C6.65218 3.58263 6.5 3.95003 6.5 4.33312V21.6664C6.5 22.0495 6.65218 22.4169 6.92307 22.6878C7.19395 22.9587 7.56135 23.1109 7.94444 23.1109H18.0556C18.4386 23.1109 18.806 22.9587 19.0769 22.6878C19.3478 22.4169 19.5 22.0495 19.5 21.6664V4.33312C19.5 3.95003 19.3478 3.58263 19.0769 3.31174C18.806 3.04085 18.4386 2.88867 18.0556 2.88867ZM13.7222 21.6664H12.2778V20.222H13.7222V21.6664ZM7.94444 18.7776V4.33312H18.0556V18.7776H7.94444Z" fill="white"/>
</svg>
