<svg width="24" height="24" viewBox="0 0 24 24" fill="none" xmlns="http://www.w3.org/2000/svg">
<path d="M1.99951 18L5.99951 11M11.9995 9.5V2V9.5ZM5.99951 11L11.9995 9.5L17.9995 8L5.99951 11ZM13.9995 15L17.9995 8L13.9995 15ZM21.9995 15L17.9995 8L21.9995 15ZM9.99951 18L5.99951 11L9.99951 18Z" stroke="white" stroke-width="2" stroke-linecap="round" stroke-linejoin="round"/>
<path d="M5.99951 22C7.06038 22 8.07779 21.5786 8.82794 20.8284C9.57808 20.0783 9.99951 19.0609 9.99951 18H1.99951C1.99951 19.0609 2.42094 20.0783 3.17108 20.8284C3.92123 21.5786 4.93865 22 5.99951 22ZM17.9995 19C19.0604 19 20.0778 18.5786 20.8279 17.8284C21.5781 17.0783 21.9995 16.0609 21.9995 15H13.9995C13.9995 16.0609 14.4209 17.0783 15.1711 17.8284C15.9212 18.5786 16.9386 19 17.9995 19Z" stroke="white" stroke-width="2" stroke-linecap="round" stroke-linejoin="round"/>
</svg>
