<svg xmlns="http://www.w3.org/2000/svg" fill="none" viewBox="0 0 19 19"  width="20" height="20">
    <g clip-path="url(#a)">
        <path fill="#A0A0A0" d="M18.23 11.676c-1.202 4.824-6.09 7.757-10.906 6.554C2.5 17.028-.433 12.14.77 7.324A8.995 8.995 0 0 1 11.677.77c4.817 1.195 7.756 6.082 6.554 10.906Z"/>
        <path fill="#fff" d="M13.786 8.379c.175-1.196-.732-1.843-1.983-2.271l.407-1.625-.984-.246-.394 1.582c-.26-.063-.527-.126-.794-.183l.394-1.589-.985-.246-.4 1.617c-.218-.049-.43-.098-.633-.147v-.007L7.05 4.926l-.26 1.055s.73.169.717.176c.4.098.47.365.457.576L7.5 8.583c.028.007.063.014.105.035A.583.583 0 0 1 7.5 8.59l-.647 2.587c-.05.12-.176.302-.45.232.007.014-.717-.176-.717-.176l-.493 1.132 1.287.324c.24.063.471.12.703.183l-.408 1.638.985.246.408-1.624c.267.07.534.14.787.204l-.4 1.617.984.246.407-1.638c1.688.316 2.954.19 3.481-1.336.429-1.224-.021-1.934-.907-2.398.654-.148 1.139-.577 1.266-1.448Zm-2.258 3.164c-.302 1.223-2.369.562-3.037.393l.541-2.172c.668.169 2.82.499 2.496 1.779Zm.31-3.185c-.281 1.117-1.997.548-2.552.407l.492-1.968c.555.14 2.348.4 2.06 1.56Z"/>
    </g>
    <defs>
        <linearGradient id="b" x1="9.495" x2="9.495" y1=".496" y2="18.498" gradientUnits="userSpaceOnUse">
            <stop stop-color="#A0A0A0"/>
            <stop offset="1" stop-color="#989898"/>
        </linearGradient>
        <clipPath id="a">
            <path fill="#fff" d="M0 0h18v18H0z" transform="translate(.5 .5)"/>
        </clipPath>
    </defs>
</svg>

