<svg width="16" height="16" viewBox="0 0 16 16" fill="none" xmlns="http://www.w3.org/2000/svg">
<path d="M3.6252 0.0795236C3.52188 0.133762 3.43421 0.210334 3.37785 0.296478L3.28704 0.430479L3.27765 1.78644C3.27139 2.71169 3.27765 3.18069 3.3027 3.26364C3.3434 3.40403 3.4937 3.58908 3.62207 3.65608C3.67217 3.6816 3.80055 3.71031 3.91327 3.72308C4.27961 3.75817 4.54888 3.63693 4.68978 3.37212C4.75867 3.24131 4.75867 3.2126 4.76806 1.9683C4.77745 0.56129 4.76806 0.433669 4.61151 0.242239C4.47061 0.0667615 4.30779 -0.000238895 4.01972 -0.000238895C3.82873 -0.000238895 3.75358 0.0157135 3.6252 0.0795236Z" fill="white"/>
<path d="M11.7419 0.0442507C11.6167 0.10168 11.4789 0.245252 11.4163 0.382444C11.3725 0.478159 11.3662 0.67597 11.3568 1.72883C11.3443 3.28899 11.3537 3.34642 11.6449 3.58571C11.7513 3.67504 11.7889 3.68461 12.0331 3.69737C12.34 3.71014 12.4965 3.67185 12.6374 3.55061C12.8503 3.36556 12.8535 3.35918 12.8535 1.85007C12.8535 0.503683 12.8535 0.490921 12.7846 0.350539C12.7439 0.273967 12.6593 0.16549 12.5936 0.114442C12.4777 0.0219173 12.4558 0.0155363 12.1552 0.00596476C11.936 0.00277424 11.8077 0.0123458 11.7419 0.0442507Z" fill="white"/>
<path d="M0.735812 1.35241C0.454012 1.42898 0.19726 1.65551 0.0657534 1.94265L0 2.08942V8.66185V15.2343L0.0845401 15.4161C0.181605 15.6267 0.369472 15.8245 0.572994 15.9266L0.720157 16H8H15.2798L15.427 15.9266C15.6305 15.8245 15.8184 15.6267 15.9155 15.4161L16 15.2343V8.66185V2.08942L15.9123 1.91075C15.8121 1.70018 15.6023 1.4896 15.3957 1.39389C15.2579 1.32689 15.1953 1.3237 14.3029 1.31412L13.3542 1.30455V2.37018C13.3542 3.24757 13.3448 3.45814 13.3041 3.57938C13.1914 3.92395 12.8564 4.15367 12.3773 4.21429C11.7041 4.30362 11.2094 4.06753 10.962 3.54109L10.865 3.33371L10.8556 2.31913L10.8462 1.30774H8.05949H5.27593V2.23937C5.27593 3.25076 5.25401 3.42305 5.10998 3.67509C5.00039 3.86333 4.80626 4.042 4.59022 4.14091C4.35851 4.25258 3.87632 4.2781 3.60078 4.19515C3.27515 4.09943 3.02153 3.88248 2.87123 3.573L2.78669 3.39752L2.7773 2.35104L2.76791 1.30774L1.82231 1.31093C1.18043 1.31093 0.829746 1.3237 0.735812 1.35241ZM14.9824 10.2252V14.995H8H1.01761V10.2252V5.45539H8H14.9824V10.2252Z" fill="white"/>
<path d="M8.42914 6.78599C8.41662 6.79556 8.40723 7.20394 8.40723 7.6889C8.40723 8.33019 8.41662 8.57904 8.4448 8.60776C8.49803 8.662 10.4143 8.662 10.4675 8.60776C10.5207 8.55352 10.5207 6.85618 10.4675 6.80194C10.4393 6.77323 10.1669 6.76365 9.44049 6.76365C8.89568 6.76365 8.43854 6.77323 8.42914 6.78599Z" fill="white"/>
<path d="M11.435 6.78599C11.4225 6.79556 11.4131 7.20394 11.4131 7.6889C11.4131 8.33019 11.4225 8.57904 11.4507 8.60776C11.5039 8.662 13.4201 8.662 13.4734 8.60776C13.5266 8.55352 13.5266 6.85618 13.4734 6.80194C13.4452 6.77323 13.1728 6.76365 12.4464 6.76365C11.9015 6.76365 11.4444 6.77323 11.435 6.78599Z" fill="white"/>
<path d="M2.43045 9.45628C2.4054 9.485 2.39601 9.75938 2.40227 10.3879L2.41166 11.2781L3.41049 11.2876C4.12125 11.294 4.42184 11.2844 4.45002 11.2589C4.50951 11.2079 4.51577 9.51052 4.45628 9.4499C4.39679 9.38928 2.48055 9.39567 2.43045 9.45628Z" fill="white"/>
<path d="M5.43631 9.45628C5.41126 9.485 5.40187 9.75938 5.40813 10.3879L5.41752 11.2781L6.41635 11.2876C7.12711 11.294 7.4277 11.2844 7.45588 11.2589C7.51537 11.2079 7.52163 9.51052 7.46214 9.4499C7.40265 9.38928 5.48641 9.39567 5.43631 9.45628Z" fill="white"/>
<path d="M8.44217 9.45628C8.41712 9.485 8.40773 9.75938 8.41399 10.3879L8.42338 11.2781L9.42221 11.2876C10.133 11.294 10.4336 11.2844 10.4617 11.2589C10.5212 11.2079 10.5275 9.51052 10.468 9.4499C10.4085 9.38928 8.49227 9.39567 8.44217 9.45628Z" fill="white"/>
<path d="M11.448 9.45628C11.423 9.485 11.4136 9.75938 11.4198 10.3879L11.4292 11.2781L12.4281 11.2876C13.1388 11.294 13.4394 11.2844 13.4676 11.2589C13.5271 11.2079 13.5334 9.51052 13.4739 9.4499C13.4144 9.38928 11.4981 9.39567 11.448 9.45628Z" fill="white"/>
<path d="M2.45187 12.0949C2.39864 12.1236 2.39551 12.2034 2.39551 13.0106C2.39551 13.6583 2.4049 13.9071 2.43308 13.9358C2.46126 13.9645 2.72741 13.9741 3.43191 13.9741C4.26478 13.9741 4.40255 13.9677 4.44326 13.9231C4.48709 13.8816 4.49336 13.754 4.49336 13.017C4.49336 12.1683 4.49336 12.1587 4.42447 12.1109C4.36498 12.0662 4.21782 12.0598 3.42878 12.0598C2.85891 12.0598 2.48318 12.0758 2.45187 12.0949Z" fill="white"/>
<path d="M5.45773 12.0949C5.4045 12.1236 5.40137 12.2034 5.40137 13.0106C5.40137 13.6583 5.41076 13.9071 5.43894 13.9358C5.46712 13.9645 5.73327 13.9741 6.43777 13.9741C7.27064 13.9741 7.40841 13.9677 7.44912 13.9231C7.49295 13.8816 7.49921 13.754 7.49921 13.017C7.49921 12.1683 7.49921 12.1587 7.43033 12.1109C7.37084 12.0662 7.22368 12.0598 6.43464 12.0598C5.86477 12.0598 5.48904 12.0758 5.45773 12.0949Z" fill="white"/>
<path d="M8.46359 12.0949C8.41036 12.1236 8.40723 12.2034 8.40723 13.017C8.40723 13.8656 8.41036 13.9103 8.46672 13.9422C8.50429 13.9614 8.88003 13.9741 9.46867 13.9741C10.2796 13.9741 10.4143 13.9677 10.455 13.9231C10.4988 13.8816 10.5051 13.754 10.5051 13.017C10.5051 12.1683 10.5051 12.1587 10.4362 12.1109C10.3767 12.0662 10.2295 12.0598 9.44049 12.0598C8.87063 12.0598 8.4949 12.0758 8.46359 12.0949Z" fill="white"/>
<path d="M11.4694 12.0949C11.4162 12.1236 11.4131 12.2034 11.4131 13.017C11.4131 13.8656 11.4162 13.9103 11.4726 13.9422C11.5102 13.9614 11.8859 13.9741 12.4745 13.9741C13.2855 13.9741 13.4201 13.9677 13.4608 13.9231C13.5047 13.8816 13.5109 13.754 13.5109 13.017C13.5109 12.1683 13.5109 12.1587 13.442 12.1109C13.3826 12.0662 13.2354 12.0598 12.4464 12.0598C11.8765 12.0598 11.5008 12.0758 11.4694 12.0949Z" fill="white"/>
</svg>
