<svg width="35" height="35" viewBox="0 0 36 40" fill="none" xmlns="http://www.w3.org/2000/svg"><g filter="url(#a)"><path d="M19.176 4.698a2.305 2.305 0 0 0-2.352 0L11.12 8.083 5.336 11.33a2.305 2.305 0 0 0-1.176 2.038L4.24 20l-.08 6.632a2.305 2.305 0 0 0 1.176 2.038l5.784 3.246 5.704 3.386c.725.43 1.627.43 2.352 0l5.704-3.386 5.784-3.246a2.305 2.305 0 0 0 1.176-2.038L31.76 20l.08-6.632a2.305 2.305 0 0 0-1.176-2.038L24.88 8.083l-5.704-3.385Z" fill="#424242"/><path d="m11.267 8.331-.006.004-5.784 3.247a2.017 2.017 0 0 0-1.029 1.782l.08 6.633v.006l-.08 6.633a2.017 2.017 0 0 0 1.03 1.782l5.783 3.247.006.004 5.704 3.385a2.017 2.017 0 0 0 2.058 0l5.704-3.385.006-.004 5.784-3.247a2.016 2.016 0 0 0 1.029-1.782l-.08-6.633v-.006l.08-6.633a2.016 2.016 0 0 0-1.03-1.782L24.74 8.335l-.006-.004-5.704-3.385a2.017 2.017 0 0 0-2.058 0L11.267 8.33Z" stroke="#fff" stroke-opacity=".9" stroke-width=".576"/></g><path d="M23.525 18.335c-.45 0-.845.197-1.136.505-1.07-.784-2.512-1.289-4.11-1.343l.83-3.96 2.645.628c0 .685.527 1.244 1.175 1.244.66 0 1.19-.575 1.19-1.26 0-.686-.528-1.26-1.19-1.26-.462 0-.86.295-1.058.698l-2.92-.686c-.147-.04-.29.07-.33.226l-.911 4.367c-1.586.07-3.013.575-4.086 1.358a1.552 1.552 0 0 0-1.15-.517c-1.668 0-2.213 2.368-.687 3.177-.054.25-.078.517-.078.784 0 2.66 2.83 4.815 6.304 4.815 3.489 0 6.319-2.155 6.319-4.815 0-.267-.027-.546-.093-.797 1.495-.812.944-3.164-.714-3.164Zm-9.32 3.345c0-.698.528-1.26 1.19-1.26.648 0 1.176.559 1.176 1.26 0 .686-.528 1.244-1.175 1.244-.66.004-1.19-.558-1.19-1.244Zm6.425 2.968c-1.092 1.155-4.17 1.155-5.261 0-.12-.111-.12-.308 0-.435a.277.277 0 0 1 .395 0c.834.905 3.598.92 4.467 0a.277.277 0 0 1 .395 0c.123.127.123.324.003.435Zm-.024-1.72c-.648 0-1.176-.559-1.176-1.245 0-.698.528-1.26 1.175-1.26.66 0 1.19.56 1.19 1.26-.002.683-.53 1.245-1.19 1.245Z" fill="#A5A5A5"/><defs><filter id="a" x=".703" y=".918" width="34.594" height="38.163" filterUnits="userSpaceOnUse" color-interpolation-filters="sRGB"><feFlood flood-opacity="0" result="BackgroundImageFix"/><feColorMatrix in="SourceAlpha" values="0 0 0 0 0 0 0 0 0 0 0 0 0 0 0 0 0 0 127 0" result="hardAlpha"/><feOffset/><feGaussianBlur stdDeviation="1.729"/><feComposite in2="hardAlpha" operator="out"/><feColorMatrix values="0 0 0 0 1 0 0 0 0 1 0 0 0 0 1 0 0 0 0.3 0"/><feBlend in2="BackgroundImageFix" result="effect1_dropShadow_674_5768"/><feBlend in="SourceGraphic" in2="effect1_dropShadow_674_5768" result="shape"/></filter></defs></svg>