<svg width="20" height="12" viewBox="0 0 20 12" fill="none" xmlns="http://www.w3.org/2000/svg">
<path d="M0.453828 0.93918C0.735119 0.657973 1.11658 0.5 1.51433 0.5C1.91207 0.5 2.29353 0.657973 2.57483 0.93918L9.99982 8.36418L17.4248 0.93918C17.7077 0.665943 18.0866 0.514751 18.4799 0.518168C18.8732 0.521586 19.2494 0.67934 19.5275 0.957452C19.8057 1.23556 19.9634 1.61178 19.9668 2.00508C19.9702 2.39837 19.8191 2.77728 19.5458 3.06018L11.0603 11.5457C10.779 11.8269 10.3976 11.9849 9.99982 11.9849C9.60208 11.9849 9.22061 11.8269 8.93932 11.5457L0.453828 3.06018C0.172621 2.77889 0.0146484 2.39743 0.0146484 1.99968C0.0146484 1.60193 0.172621 1.22047 0.453828 0.93918Z" fill="black"/>
</svg>
