<svg width="16" height="15" viewBox="0 0 16 15" fill="none" xmlns="http://www.w3.org/2000/svg">
<path d="M14.3846 9.97081C14.1994 10.1439 13.9483 10.2412 13.6865 10.2412C13.4247 10.2412 13.1736 10.1439 12.9884 9.97081L8.10066 5.39934L3.21293 9.97081C3.0267 10.139 2.77727 10.2321 2.51837 10.23C2.25947 10.2279 2.01182 10.1308 1.82874 9.95957C1.64567 9.78834 1.54182 9.5567 1.53957 9.31456C1.53732 9.07241 1.63685 8.83912 1.81671 8.66494L7.40255 3.44054C7.58772 3.2674 7.83883 3.17014 8.10066 3.17014C8.36249 3.17014 8.61359 3.2674 8.79876 3.44054L14.3846 8.66494C14.5697 8.83813 14.6737 9.07299 14.6737 9.31788C14.6737 9.56277 14.5697 9.79763 14.3846 9.97081Z" fill="white"/>
</svg>
