<svg width="20" height="20" viewBox="0 0 30 30" fill="none" xmlns="http://www.w3.org/2000/svg"><path d="M13.75 11.25A3.745 3.745 0 0 1 10 15a3.745 3.745 0 0 1-3.75-3.75A3.745 3.745 0 0 1 10 7.5a3.745 3.745 0 0 1 3.75 3.75ZM17.5 25h-15v-2.5c0-2.762 3.362-5 7.5-5 4.137 0 7.5 2.238 7.5 5V25ZM8.75 11.25c0 .688.563 1.25 1.25 1.25.688 0 1.25-.563 1.25-1.25 0-.688-.563-1.25-1.25-1.25-.688 0-1.25.563-1.25 1.25ZM5 22.5h10c0-1.375-2.238-2.5-5-2.5-2.763 0-5 1.125-5 2.5ZM27.5 15v2.5H16.25V15H27.5Zm0-5v2.5H16.25V10H27.5Zm0-5v2.5H16.25V5H27.5Z" fill="#fff" /></svg>