<svg width="24" height="24" viewBox="0 0 24 24" fill="none" xmlns="http://www.w3.org/2000/svg">
<g opacity="0.7">
<path fill-rule="evenodd" clipRule="evenodd" d="M4.44869 2.75165C4.22237 2.53306 3.91925 2.41211 3.60461 2.41484C3.28998 2.41757 2.989 2.54378 2.76651 2.76627C2.54402 2.98876 2.41782 3.28973 2.41508 3.60437C2.41235 3.919 2.5333 4.22213 2.75189 4.44845L19.5519 21.2484C19.7782 21.467 20.0813 21.588 20.396 21.5853C20.7106 21.5825 21.0116 21.4563 21.2341 21.2338C21.4566 21.0113 21.5828 20.7104 21.5855 20.3957C21.5882 20.0811 21.4673 19.778 21.2487 19.5516L19.4811 17.784C21.3501 16.2938 22.7322 14.28 23.4507 12C21.9219 7.13165 17.3739 3.60005 12.0003 3.60005C10.1192 3.5975 8.2641 4.03907 6.58589 4.88885L4.44989 2.75165H4.44869ZM9.56189 7.86365L11.3787 9.68165C11.7856 9.57359 12.2138 9.57431 12.6203 9.68372C13.0268 9.79314 13.3975 10.0074 13.6952 10.3051C13.9929 10.6028 14.2072 10.9735 14.3166 11.38C14.426 11.7866 14.4268 12.2147 14.3187 12.6216L16.1355 14.4384C16.6767 13.5217 16.8977 12.451 16.7639 11.3949C16.63 10.3387 16.1489 9.35704 15.3961 8.60426C14.6433 7.85148 13.6616 7.37032 12.6055 7.23647C11.5493 7.10261 10.4787 7.32367 9.56189 7.86485V7.86365Z" fill="white"/>
<path d="M14.945 20.0364L11.7002 16.7904C10.5334 16.7173 9.43344 16.2209 8.60667 15.3943C7.77991 14.5678 7.28321 13.4679 7.2098 12.3012L2.8022 7.89355C1.78846 9.10077 1.02302 10.4963 0.549805 12C2.0786 16.8684 6.6278 20.4 12.0002 20.4C13.0166 20.4 14.003 20.274 14.945 20.0364Z" fill="white"/>
</g>
</svg>
