<svg width="30" height="30" viewBox="0 0 32 32" fill="none" xmlns="http://www.w3.org/2000/svg">
  <path d="M29 7.947a10.68 10.68 0 0 1-3.069.825 5.316 5.316 0 0 0 2.344-2.938 10.52 10.52 0 0 1-3.381 1.288A5.315 5.315 0 0 0 21 5.438a5.327 5.327 0 0 0-5.328 5.33c0 .413.05.826.131 1.223A15.143 15.143 0 0 1 4.816 6.413a5.291 5.291 0 0 0-.725 2.69c0 1.85.94 3.481 2.375 4.44a5.375 5.375 0 0 1-2.41-.677v.065a5.33 5.33 0 0 0 4.272 5.232c-.458.119-.93.18-1.403.18-.347 0-.675-.034-1.006-.08a5.338 5.338 0 0 0 4.981 3.696 10.68 10.68 0 0 1-6.615 2.279 10.9 10.9 0 0 1-1.288-.066 15.09 15.09 0 0 0 8.184 2.39c9.8 0 15.163-8.118 15.163-15.165 0-.231 0-.463-.016-.694 1.038-.76 1.947-1.7 2.672-2.756Z" fill="#B5B5B5" fill-opacity=".8"/>
</svg>
