<svg width="30" height="30" viewBox="0 0 32 38" fill="none" xmlns="http://www.w3.org/2000/svg">
  <g clip-path="url(#a)">
    <path d="M16 15.041c-.754 0-1.49.233-2.116.668a3.93 3.93 0 0 0-1.403 1.777 4.103 4.103 0 0 0-.216 2.287 4.01 4.01 0 0 0 1.043 2.027c.533.553 1.212.93 1.95 1.083a3.677 3.677 0 0 0 2.202-.226 3.845 3.845 0 0 0 1.71-1.458A4.07 4.07 0 0 0 19.81 19c0-1.05-.402-2.057-1.117-2.799A3.742 3.742 0 0 0 16 15.041Zm8.908-3.043a4.028 4.028 0 0 0-.86-1.363 3.848 3.848 0 0 0-1.312-.894c-1.5-.615-5.072-.477-6.736-.477-1.664 0-5.232-.143-6.736.477a3.848 3.848 0 0 0-1.312.894 4.026 4.026 0 0 0-.86 1.363c-.592 1.559-.46 5.273-.46 7.001 0 1.728-.132 5.438.462 7.002.194.51.487.975.86 1.363.374.388.82.692 1.312.894 1.5.615 5.072.477 6.737.477s5.231.143 6.736-.477a3.846 3.846 0 0 0 1.311-.894 4 4 0 0 0 .86-1.363c.597-1.559.46-5.273.46-7.001 0-1.728.137-5.437-.46-7.001h-.002ZM16 25.086a5.702 5.702 0 0 1-3.254-1.026 6.042 6.042 0 0 1-2.157-2.731 6.307 6.307 0 0 1-.334-3.516 6.162 6.162 0 0 1 1.603-3.116 5.792 5.792 0 0 1 3-1.666 5.653 5.653 0 0 1 3.383.346 5.912 5.912 0 0 1 2.629 2.242A6.25 6.25 0 0 1 21.857 19c.001.8-.15 1.591-.444 2.33a6.098 6.098 0 0 1-1.27 1.976 5.84 5.84 0 0 1-1.9 1.319 5.659 5.659 0 0 1-2.243.46Zm6.099-11.007c-.27 0-.535-.083-.76-.239a1.411 1.411 0 0 1-.504-.637 1.472 1.472 0 0 1-.078-.82 1.44 1.44 0 0 1 .374-.728c.191-.2.435-.335.7-.39a1.32 1.32 0 0 1 .79.081c.25.108.463.29.614.524a1.488 1.488 0 0 1 .128 1.333c-.068.173-.169.33-.295.462a1.363 1.363 0 0 1-.443.309 1.32 1.32 0 0 1-.524.108l-.002-.003ZM28.57 2.375H3.43c-.91 0-1.782.375-2.425 1.043A3.634 3.634 0 0 0 0 5.938v26.125c0 .944.361 1.85 1.004 2.519a3.364 3.364 0 0 0 2.425 1.043H28.57c.91 0 1.782-.375 2.425-1.043A3.634 3.634 0 0 0 32 32.062V5.939c0-.945-.361-1.851-1.004-2.52a3.365 3.365 0 0 0-2.425-1.043Zm-1.22 21.523c-.093 1.903-.51 3.588-1.847 4.973-1.336 1.385-2.957 1.828-4.786 1.919-1.886.11-7.542.11-9.428 0-1.83-.096-3.447-.531-4.786-1.919-1.338-1.388-1.76-3.074-1.846-4.973-.107-1.96-.107-7.838 0-9.796.092-1.903.505-3.588 1.846-4.973 1.342-1.385 2.962-1.823 4.786-1.913 1.886-.111 7.542-.111 9.428 0 1.831.095 3.453.53 4.786 1.918 1.334 1.388 1.76 3.074 1.847 4.976.106 1.954.106 7.826 0 9.788Z" fill="#9C9C9C" fill-opacity=".8"/>
  </g>
  <defs>
    <clipPath id="a">
      <path fill="#fff" d="M0 0h32v38H0z"/>
    </clipPath>
  </defs>
</svg>
