<svg width="30" height="30" viewBox="0 0 32 32" fill="none" xmlns="http://www.w3.org/2000/svg">
  <path d="M27.519 12.72c-.938 0-1.763.387-2.37.993-2.23-1.544-5.237-2.538-8.568-2.644l1.731-7.8 5.513 1.238c0 1.35 1.1 2.45 2.45 2.45a2.491 2.491 0 0 0 2.481-2.482c0-1.35-1.1-2.48-2.481-2.48-.963 0-1.794.58-2.206 1.374L17.98 2.02c-.306-.081-.606.138-.687.444l-1.9 8.6c-3.307.137-6.282 1.131-8.52 2.675a3.321 3.321 0 0 0-2.4-1.019c-3.474 0-4.612 4.663-1.43 6.256a6.995 6.995 0 0 0-.163 1.544c0 5.238 5.9 9.481 13.144 9.481C23.3 30 29.2 25.757 29.2 20.52c0-.526-.056-1.076-.194-1.57 3.119-1.6 1.969-6.23-1.487-6.23ZM8.087 19.306c0-1.375 1.1-2.482 2.482-2.482 1.35 0 2.45 1.1 2.45 2.482 0 1.35-1.1 2.45-2.45 2.45a2.46 2.46 0 0 1-2.482-2.45Zm13.394 5.843c-2.275 2.275-8.694 2.275-10.969 0-.25-.218-.25-.606 0-.856a.6.6 0 0 1 .825 0c1.738 1.781 7.5 1.813 9.313 0a.6.6 0 0 1 .825 0c.256.25.256.638.006.856Zm-.05-3.387c-1.35 0-2.45-1.1-2.45-2.45 0-1.375 1.1-2.481 2.45-2.481a2.47 2.47 0 0 1 2.481 2.48 2.473 2.473 0 0 1-2.48 2.45Z" fill="#9C9C9C" fill-opacity=".8"/>
</svg>
