<svg width="21" height="20" viewBox="0 0 21 20" fill="none" xmlns="http://www.w3.org/2000/svg"><path d="M18.671 8.368H18v-.035h-7.5v3.334h4.71A4.998 4.998 0 0 1 5.5 10a5 5 0 0 1 5-5c1.274 0 2.434.48 3.317 1.266l2.357-2.357A8.295 8.295 0 0 0 10.5 1.667a8.334 8.334 0 1 0 8.171 6.701Z" fill="#FFC107"/><path d="M3.127 6.121 5.865 8.13A4.998 4.998 0 0 1 10.5 5c1.274 0 2.434.48 3.317 1.266l2.357-2.357A8.295 8.295 0 0 0 10.5 1.667 8.329 8.329 0 0 0 3.127 6.12Z" fill="#FF3D00"/><path d="M10.5 18.333a8.294 8.294 0 0 0 5.587-2.163l-2.579-2.183A4.962 4.962 0 0 1 10.5 15a4.998 4.998 0 0 1-4.701-3.31L3.08 13.782a8.327 8.327 0 0 0 7.419 4.55Z" fill="#4CAF50"/><path d="M18.671 8.368H18v-.035h-7.5v3.334h4.71a5.017 5.017 0 0 1-1.703 2.32l2.58 2.182c-.182.166 2.746-2.002 2.746-6.17 0-.558-.057-1.103-.162-1.631Z" fill="#1976D2"/></svg>