<svg width="24" height="24" viewBox="0 0 24 24" fill="none" xmlns="http://www.w3.org/2000/svg">
<g clip-path="url(#clip0_670_535)">
<path fill-rule="evenodd" clip-rule="evenodd" d="M2.4645 4.71461L0.640501 2.89061C0.588053 2.83803 0.521175 2.80221 0.448344 2.78768C0.375512 2.77316 0.300008 2.78059 0.231403 2.80902C0.162798 2.83746 0.104182 2.88563 0.0629854 2.94742C0.021789 3.00921 -0.000132273 3.08185 6.00488e-07 3.15611V8.62511C6.00488e-07 8.83211 0.168001 9.00011 0.375001 9.00011H5.844C5.91827 9.00024 5.9909 8.97832 6.05269 8.93713C6.11448 8.89593 6.16265 8.83731 6.19109 8.76871C6.21953 8.7001 6.22695 8.6246 6.21243 8.55177C6.1979 8.47894 6.16208 8.41206 6.1095 8.35961L4.0725 6.32261C5.40035 4.46808 7.33636 3.13778 9.54369 2.56317C11.751 1.98856 14.0899 2.206 16.1535 3.17768C18.2171 4.14935 19.8747 5.81374 20.8379 7.88127C21.8011 9.94879 22.009 12.2886 21.4254 14.4935C20.8417 16.6985 19.5035 18.629 17.6436 19.9493C15.7836 21.2696 13.5197 21.8959 11.2456 21.7195C8.97157 21.543 6.83135 20.5749 5.19735 18.9835C3.56335 17.3921 2.53899 15.2782 2.3025 13.0096C2.27187 12.7126 2.12452 12.44 1.89286 12.2517C1.66121 12.0633 1.36423 11.9747 1.06725 12.0054C0.770274 12.036 0.49763 12.1833 0.309297 12.415C0.120964 12.6467 0.0323681 12.9436 0.0630006 13.2406C0.351583 16.0175 1.59923 18.6068 3.59116 20.563C5.58308 22.5191 8.19466 23.7196 10.9763 23.9578C13.7579 24.196 16.5356 23.457 18.8311 21.8679C21.1266 20.2789 22.7963 17.9394 23.5527 15.252C24.3092 12.5646 24.1051 9.69759 22.9756 7.14447C21.8461 4.59135 19.8618 2.51189 17.3644 1.26406C14.867 0.0162297 12.0126 -0.321885 9.29279 0.307921C6.57295 0.937726 4.15775 2.49605 2.463 4.71461H2.4645ZM11.625 6.00011C11.9234 6.00011 12.2095 6.11864 12.4205 6.32962C12.6315 6.54059 12.75 6.82674 12.75 7.12511V11.6131L15.792 12.8311C16.0601 12.948 16.2721 13.1646 16.3832 13.4352C16.4942 13.7057 16.4956 14.0088 16.3869 14.2803C16.2783 14.5518 16.0682 14.7704 15.8012 14.8896C15.5341 15.0089 15.2312 15.0194 14.9565 14.9191L11.2065 13.4191C10.998 13.3355 10.8192 13.1914 10.6933 13.0054C10.5674 12.8193 10.5001 12.5998 10.5 12.3751V7.12511C10.5 6.82674 10.6185 6.54059 10.8295 6.32962C11.0405 6.11864 11.3266 6.00011 11.625 6.00011Z" fill="white"/>
</g>
<defs>
<clipPath id="clip0_670_535">
<rect width="24" height="24" fill="white"/>
</clipPath>
</defs>
</svg>
