<svg width="20" height="20" viewBox="0 0 18 16" fill="none" xmlns="http://www.w3.org/2000/svg"><path d="M17.583 0 9.859 5.419l1.436 -3.194L17.583 0Z" fill="#E17726"/><path d="m0.435 0.007 6.27 2.219L8.07 5.46 0.435 0.007Zm14.04 11.517 3.413 0.062 -1.193 3.842 -4.165 -1.087 1.945 -2.817Zm-10.95 0 1.938 2.817 -4.159 1.088L0.12 11.585l3.406 -0.062Z" fill="#E27625"/><path d="m7.884 4.637 0.14 4.272 -4.175 -0.18 1.188 -1.698 0.015 -0.017 2.832 -2.377Zm2.188 -0.048 2.876 2.425 0.015 0.017 1.188 1.698 -4.174 0.18 0.095 -4.32Zm-4.487 6.947 2.28 1.684 -2.648 1.212 0.368 -2.896Zm6.83 0 0.36 2.896 -2.64 -1.212 2.28 -1.684Z" fill="#E27625"/><path d="m10.194 13.062 2.68 1.23 -2.493 1.123 0.026 -0.742 -0.213 -1.611Zm-2.389 0 -0.204 1.598 0.017 0.754 -2.498 -1.122 2.685 -1.23Z" fill="#D5BFB2"/><path d="m7.032 9.467 0.7 1.395 -2.384 -0.662 1.684 -0.733Zm3.936 0 1.692 0.733 -2.392 0.662 0.7 -1.395Z" fill="#233447"/><path d="m5.768 11.522 -0.386 3.003 -2.065 -2.937 2.45 -0.066Zm6.465 0 2.45 0.066 -2.073 2.937 -0.377 -3.003ZM14.21 8.56l-1.783 1.724 -1.376 -0.596L10.393 11l-0.431 -2.256 4.248 -0.184Zm-10.423 0 4.25 0.184L7.605 11l-0.659 -1.312 -1.367 0.596L3.787 8.56Z" fill="#CC6228"/><path d="m3.668 8.206 2.018 1.941 0.07 1.917 -2.088 -3.858Zm10.666 -0.004 -2.091 3.865 0.078 -1.92 2.013 -1.945Zm-6.395 0.122 0.081 0.485 0.2 1.207 -0.128 3.708 -0.61 -2.979v-0.03l0.457 -2.391Zm2.121 -0.007 0.459 2.397v0.031l-0.612 2.987 -0.024 -0.747 -0.096 -2.991 0.273 -1.677Z" fill="#E27525"/><path d="m12.5 10.07 -0.068 1.665 -2.128 1.572 -0.43 -0.288 0.482 -2.356 2.145 -0.593Zm-6.993 0 2.137 0.593 0.482 2.356 -0.43 0.288 -2.129 -1.572 -0.06 -1.665Z" fill="#F5841F"/><path d="m4.712 13.924 2.724 1.223 -0.012 -0.522 0.228 -0.19h2.695l0.236 0.19 -0.017 0.521 2.706 -1.22 -1.317 1.033 -1.592 1.037H7.63l-1.591 -1.042 -1.327 -1.03Z" fill="#C0AC9D"/><path d="m9.999 12.899 0.385 0.258 0.225 1.707 -0.326 -0.262H7.718l-0.32 0.267 0.218 -1.712 0.385 -0.258H10Z" fill="#161616"/><path d="M17.073 0.15 18 2.787l-0.579 2.667 0.412 0.301 -0.558 0.404 0.42 0.307 -0.556 0.48 0.341 0.233 -0.904 1.002 -3.71 -1.024 -0.033 -0.017 -2.674 -2.138L17.073 0.15ZM0.927 0.15l6.914 4.852L5.167 7.14l-0.032 0.017 -3.71 1.024L0.52 7.18l0.34 -0.233 -0.555 -0.48 0.419 -0.307 -0.566 -0.405 0.427 -0.301L0 2.787 0.927 0.15Z" fill="#763E1A"/><path d="m12.684 6.933 3.931 1.085 1.277 3.732h-3.37l-2.32 0.028 1.688 -3.12 -1.206 -1.725Zm-7.368 0L4.11 8.658l1.689 3.12 -2.32 -0.028H0.114l1.27 -3.732 3.931 -1.085Zm6.172 -4.725 -1.1 2.815 -0.233 3.804 -0.09 1.193 -0.006 3.046H7.94l-0.006 -3.04 -0.09 -1.2 -0.233 -3.803 -1.1 -2.815h4.976Z" fill="#F5841F"/></svg>