<svg width="54" height="54" viewBox="0 0 54 54" fill="none" xmlns="http://www.w3.org/2000/svg">
<path d="M15.548 7.15713L15.5481 7.15721L15.5416 7.16086L3.92911 13.68L4.08958 26.9963L4.08967 26.9963L4.08958 27.0037L3.92911 40.32L15.5416 46.8391L15.5416 46.8391L15.548 46.8429L27 53.64L38.452 46.8429L38.4519 46.8428L38.4584 46.8391L50.0709 40.32L49.9104 27.0037L49.9103 27.0037L49.9104 26.9963L50.0709 13.68L38.4584 7.16086L38.4584 7.16094L38.452 7.15713L27 0.360029L15.548 7.15713Z" fill="#E6E6E6" stroke="#323232" stroke-width="0.619205"/>
<g clip-path="url(#clip0_670_3172)">
<path d="M39.8743 14.627L28.2888 23.0088L30.4432 18.0692L39.8743 14.627Z" fill="#E17726"/>
<path d="M14.1529 14.6367L23.5587 18.0696L25.6044 23.0741L14.1529 14.6367ZM35.2117 32.4528L40.3324 32.5481L38.5428 38.4924L32.2945 36.8103L35.2117 32.4528ZM18.788 32.4528L21.6944 36.8103L15.4567 38.4925L13.678 32.5481L18.788 32.4528Z" fill="#E27625"/>
<path d="M25.3262 21.7993L25.5355 28.4079L19.2737 28.1293L21.0548 25.5019L21.0774 25.4766L25.3262 21.7993ZM28.6087 21.7256L32.9224 25.4769L32.9448 25.502L34.7259 28.1294L28.4655 28.4079L28.6087 21.7256ZM21.8778 32.4719L25.2969 35.0767L21.3252 36.9517L21.8778 32.4719ZM32.1226 32.4715L32.6638 36.9518L28.7031 35.0765L32.1226 32.4715Z" fill="#E27625"/>
<path d="M28.7906 34.8311L32.8097 36.7339L29.0711 38.4712L29.1099 37.323L28.7906 34.8311ZM25.2081 34.8319L24.9013 37.3042L24.9265 38.4698L21.1792 36.7339L25.2081 34.8319Z" fill="#D5BFB2"/>
<path d="M24.0477 29.2705L25.0979 31.4287L21.5222 30.4045L24.0477 29.2705ZM29.9523 29.2707L32.4897 30.4045L28.9023 31.4284L29.9523 29.2707Z" fill="#233447"/>
<path d="M22.1512 32.4504L21.5733 37.0951L18.4753 32.5519L22.1512 32.4504ZM31.8491 32.4505L35.5251 32.5519L32.4156 37.0953L31.8491 32.4505ZM34.8166 27.8672L32.1413 30.5331L30.0787 29.6114L29.0912 31.6414L28.4438 28.1507L34.8166 27.8672ZM19.1822 27.8672L25.5562 28.1507L24.9087 31.6414L23.921 29.6118L21.8693 30.5332L19.1822 27.8672Z" fill="#CC6228"/>
<path d="M19.002 27.3198L22.0287 30.3229L22.1335 33.2877L19.002 27.3198ZM35.0013 27.3145L31.864 33.2929L31.9821 30.3229L35.0013 27.3145ZM25.4082 27.5028L25.53 28.2525L25.8311 30.1202L25.6375 35.8565L24.7226 31.2484L24.7223 31.2007L25.4082 27.5028ZM28.5903 27.4923L29.2781 31.2007L29.2778 31.2484L28.3605 35.8681L28.3242 34.7125L28.1811 30.0861L28.5903 27.4923Z" fill="#E27525"/>
<path d="M32.2511 30.2031L32.1487 32.779L28.9557 35.2114L28.3102 34.7655L29.0338 31.1216L32.2511 30.2031ZM21.76 30.2031L24.9662 31.1216L25.6897 34.7655L25.0442 35.2114L21.8511 32.7788L21.76 30.2031Z" fill="#F5841F"/>
<path d="M20.5684 36.165L24.6534 38.0576L24.6361 37.2494L24.9779 36.956H29.0209L29.3751 37.2484L29.3489 38.0559L33.4081 36.1698L31.4329 37.7657L29.0446 39.3696H24.9451L22.5583 37.7591L20.5684 36.165Z" fill="#C0AC9D"/>
<path d="M28.4981 34.5801L29.0756 34.9791L29.4141 37.6195L28.9243 37.2151H25.0772L24.5967 37.6276L24.9241 34.9793L25.5018 34.5801H28.4981Z" fill="#161616"/>
<path d="M39.1093 14.8594L40.5 18.9387L39.6315 23.0634L40.2499 23.5298L39.413 24.1541L40.0421 24.6291L39.2092 25.3707L39.7205 25.7328L38.3635 27.2823L32.7979 25.6978L32.7497 25.6725L28.7391 22.3645L39.1093 14.8594ZM14.8907 14.8594L25.261 22.3645L21.2503 25.6725L21.2021 25.6978L15.6365 27.2823L14.2795 25.7328L14.7904 25.371L13.9581 24.6291L14.5858 24.1546L13.7364 23.5286L14.3781 23.0618L13.5 18.9389L14.8907 14.8594Z" fill="#763E1A"/>
<path d="M32.5258 25.3513L38.4229 27.0301L40.3387 32.8036H35.2842L31.8017 32.8465L34.3344 28.0194L32.5258 25.3513ZM21.4744 25.3513L19.6655 28.0194L22.1985 32.8465L18.7175 32.8036H13.6721L15.5772 27.0302L21.4744 25.3513ZM30.732 18.042L29.0826 22.3979L28.7325 28.2822L28.5986 30.1266L28.5879 34.8382H25.4122L25.4018 30.1355L25.2675 28.2807L24.9173 22.3979L23.2681 18.042H30.732Z" fill="#F5841F"/>
</g>
<defs>
<clipPath id="clip0_670_3172">
<rect width="27" height="24.75" fill="white" transform="translate(13.5 14.627)"/>
</clipPath>
</defs>
</svg>
