<svg width="20" height="20" viewBox="0 0 20 20" fill="none" xmlns="http://www.w3.org/2000/svg">
<path fill-rule="evenodd" clip-rule="evenodd" d="M1.16992 9.99961C1.16992 7.65757 2.10029 5.41146 3.75636 3.75539C5.41244 2.09932 7.65855 1.16895 10.0006 1.16895C12.3426 1.16895 14.5887 2.09932 16.2448 3.75539C17.9009 5.41146 18.8313 7.65757 18.8313 9.99961C18.8313 12.3417 17.9009 14.5878 16.2448 16.2438C14.5887 17.8999 12.3426 18.8303 10.0006 18.8303C7.65855 18.8303 5.41244 17.8999 3.75636 16.2438C2.10029 14.5878 1.16992 12.3417 1.16992 9.99961ZM10.0006 2.43561C8.53448 2.43566 7.09998 2.86179 5.8716 3.66215C4.64323 4.46251 3.67392 5.60261 3.08161 6.94375C2.4893 8.28489 2.29952 9.76926 2.53534 11.2163C2.77116 12.6633 3.42243 14.0106 4.40992 15.0943C5.00942 14.1553 5.83594 13.3825 6.8131 12.8475C7.79026 12.3124 8.88652 12.0322 10.0006 12.0329C11.1147 12.0321 12.211 12.3122 13.1882 12.8473C14.1653 13.3824 14.9918 14.1552 15.5913 15.0943C16.5787 14.0106 17.23 12.6633 17.4658 11.2163C17.7017 9.76926 17.5119 8.28489 16.9196 6.94375C16.3273 5.60261 15.3579 4.46251 14.1296 3.66215C12.9012 2.86179 11.4667 2.43566 10.0006 2.43561ZM14.6433 15.9716C14.1714 15.1584 13.4942 14.4836 12.6793 14.0146C11.8645 13.5456 10.9407 13.2991 10.0006 13.2996C9.06044 13.2991 8.13667 13.5456 7.32184 14.0146C6.50701 14.4836 5.82975 15.1584 5.35792 15.9716C6.68428 17.0058 8.31867 17.5663 10.0006 17.5636C11.7499 17.5636 13.3606 16.9689 14.6433 15.9716ZM6.86726 8.67295C6.86726 7.84193 7.19737 7.04496 7.78499 6.45734C8.3726 5.86973 9.16958 5.53961 10.0006 5.53961C10.8316 5.53961 11.6286 5.86973 12.2162 6.45734C12.8038 7.04496 13.1339 7.84193 13.1339 8.67295C13.1339 9.50396 12.8038 10.3009 12.2162 10.8885C11.6286 11.4762 10.8316 11.8063 10.0006 11.8063C9.16958 11.8063 8.3726 11.4762 7.78499 10.8885C7.19737 10.3009 6.86726 9.50396 6.86726 8.67295ZM10.0006 6.80628C9.75545 6.80628 9.51272 6.85456 9.28625 6.94837C9.05977 7.04218 8.85399 7.17968 8.68066 7.35301C8.50732 7.52635 8.36982 7.73213 8.27601 7.9586C8.1822 8.18508 8.13392 8.42781 8.13392 8.67295C8.13392 8.91808 8.1822 9.16081 8.27601 9.38729C8.36982 9.61376 8.50732 9.81954 8.68066 9.99288C8.85399 10.1662 9.05977 10.3037 9.28625 10.3975C9.51272 10.4913 9.75545 10.5396 10.0006 10.5396C10.4957 10.5396 10.9705 10.3429 11.3205 9.99288C11.6706 9.64281 11.8673 9.16802 11.8673 8.67295C11.8673 8.17787 11.6706 7.70308 11.3205 7.35301C10.9705 7.00294 10.4957 6.80628 10.0006 6.80628Z" fill="white"/>
</svg>
