<svg width="24" height="24" viewBox="0 0 24 24" fill="none" xmlns="http://www.w3.org/2000/svg">
<path d="M1.99963 18L5.99963 11M11.9996 9.5V2V9.5ZM5.99963 11L11.9996 9.5L17.9996 8L5.99963 11ZM13.9996 15L17.9996 8L13.9996 15ZM21.9996 15L17.9996 8L21.9996 15ZM9.99963 18L5.99963 11L9.99963 18Z" stroke="white" stroke-width="2" stroke-linecap="round" stroke-linejoin="round"/>
<path d="M5.99963 22C7.0605 22 8.07792 21.5786 8.82806 20.8284C9.57821 20.0783 9.99963 19.0609 9.99963 18H1.99963C1.99963 19.0609 2.42106 20.0783 3.17121 20.8284C3.92135 21.5786 4.93877 22 5.99963 22ZM17.9996 19C19.0605 19 20.0779 18.5786 20.8281 17.8284C21.5782 17.0783 21.9996 16.0609 21.9996 15H13.9996C13.9996 16.0609 14.4211 17.0783 15.1712 17.8284C15.9214 18.5786 16.9388 19 17.9996 19Z" stroke="white" stroke-width="2" stroke-linecap="round" stroke-linejoin="round"/>
</svg>
