<svg width="24" height="24" viewBox="0 0 24 24" fill="none" xmlns="http://www.w3.org/2000/svg">
<path d="M11.6906 1.1891C12.2766 0.603633 13.2234 0.603633 13.8094 1.1891C14.3953 1.77504 14.3953 2.72473 13.8094 3.31066L12.6234 4.45769H19.5C21.9844 4.45769 24 6.47332 24 8.9577V10.4577C24 11.3296 23.3297 11.9577 22.5 11.9577C21.6703 11.9577 21 11.3296 21 10.4577V8.9577C21 8.1702 20.3297 7.4577 19.5 7.4577H12.6234L13.8094 8.69051C14.3953 9.27644 14.3953 10.2233 13.8094 10.8093C13.2234 11.3952 12.2766 11.3952 11.6906 10.8093L7.94062 7.05926C7.35469 6.47332 7.35469 5.52644 7.94062 4.94051L11.6906 1.1891ZM16.0594 16.9405C16.6453 17.5264 16.6453 18.4733 16.0594 19.0593L12.3094 22.8093C11.7234 23.3952 10.7766 23.3952 10.1906 22.8093C9.60469 22.2233 9.60469 21.2764 10.1906 20.6905L11.3766 19.4999H4.5C3.67172 19.4999 3 20.1702 3 20.9999V22.4999C3 23.3296 2.32828 23.9999 1.5 23.9999C0.671719 23.9999 0 23.3296 0 22.4999V20.9999C0 18.4733 2.01469 16.4999 4.5 16.4999H11.3766L10.1906 15.3093C9.60469 14.7233 9.60469 13.7764 10.1906 13.1905C10.7766 12.6046 11.7234 12.6046 12.3094 13.1905L16.0594 16.9405ZM24 17.9999C24 19.6546 22.6547 20.9999 21 20.9999C19.3453 20.9999 18 19.6546 18 17.9999C18 16.3452 19.3453 14.9999 21 14.9999C22.6547 14.9999 24 16.3452 24 17.9999ZM6 5.99988C6 7.65457 4.65703 8.99988 3 8.99988C1.34297 8.99988 0 7.65457 0 5.99988C0 4.34285 1.34297 2.99988 3 2.99988C4.65703 2.99988 6 4.34285 6 5.99988Z" fill="white"/>
</svg>
