<svg width="35" height="25" viewBox="0 0 45 35" fill="none" xmlns="http://www.w3.org/2000/svg"><path d="M4 5.21c0-.586.237-1.148.659-1.563A2.27 2.27 0 0 1 6.25 3h31.5a2.27 2.27 0 0 1 1.591.647c.422.415.659.977.659 1.564 0 .586-.237 1.148-.659 1.563a2.27 2.27 0 0 1-1.591.647H6.25a2.27 2.27 0 0 1-1.591-.647A2.191 2.191 0 0 1 4 5.21ZM4 17c0-.586.237-1.149.659-1.563a2.27 2.27 0 0 1 1.591-.647h31.5a2.27 2.27 0 0 1 1.591.647c.422.415.659.977.659 1.563s-.237 1.148-.659 1.563a2.27 2.27 0 0 1-1.591.648H6.25a2.27 2.27 0 0 1-1.591-.648A2.191 2.191 0 0 1 4 17Zm0 11.79c0-.587.237-1.149.659-1.564a2.27 2.27 0 0 1 1.591-.647h31.5a2.27 2.27 0 0 1 1.591.647c.422.415.659.977.659 1.564 0 .586-.237 1.148-.659 1.563A2.27 2.27 0 0 1 37.75 31H6.25a2.27 2.27 0 0 1-1.591-.647A2.191 2.191 0 0 1 4 28.789Z" fill="#000" opacity=".8"/></svg>