<svg width="35" height="35" viewBox="0 0 36 40" fill="none" xmlns="http://www.w3.org/2000/svg"><g filter="url(#a)"><path d="M19.176 4.698a2.305 2.305 0 0 0-2.352 0L11.12 8.083 5.336 11.33a2.305 2.305 0 0 0-1.176 2.038L4.24 20l-.08 6.632a2.305 2.305 0 0 0 1.176 2.038l5.784 3.246 5.704 3.386c.725.43 1.627.43 2.352 0l5.704-3.386 5.784-3.246a2.305 2.305 0 0 0 1.176-2.038L31.76 20l.08-6.632a2.305 2.305 0 0 0-1.176-2.038L24.88 8.083l-5.704-3.385Z" fill="#424242"/><path d="m11.267 8.331-.006.004-5.784 3.247a2.017 2.017 0 0 0-1.029 1.782l.08 6.633v.006l-.08 6.633a2.017 2.017 0 0 0 1.03 1.782l5.783 3.247.006.004 5.704 3.385a2.017 2.017 0 0 0 2.058 0l5.704-3.385.006-.004 5.784-3.247a2.016 2.016 0 0 0 1.029-1.782l-.08-6.633v-.006l.08-6.633a2.016 2.016 0 0 0-1.03-1.782L24.74 8.335l-.006-.004-5.704-3.385a2.017 2.017 0 0 0-2.058 0L11.267 8.33Z" stroke="#fff" stroke-opacity=".9" stroke-width=".576"/></g><path d="m24.664 13.567-13.648 5.31c-.932.378-.926.902-.171 1.136l3.504 1.102 8.107-5.16c.384-.236.734-.11.446.149l-6.569 5.98h-.001l.001.001-.241 3.644c.354 0 .51-.163.709-.357l1.702-1.67 3.54 2.639c.652.362 1.121.176 1.284-.61l2.324-11.05c.238-.962-.364-1.398-.987-1.114Z" fill="#A5A5A5"/><defs><filter id="a" x=".703" y=".918" width="34.594" height="38.163" filterUnits="userSpaceOnUse" color-interpolation-filters="sRGB"><feFlood flood-opacity="0" result="BackgroundImageFix"/><feColorMatrix in="SourceAlpha" values="0 0 0 0 0 0 0 0 0 0 0 0 0 0 0 0 0 0 127 0" result="hardAlpha"/><feOffset/><feGaussianBlur stdDeviation="1.729"/><feComposite in2="hardAlpha" operator="out"/><feColorMatrix values="0 0 0 0 1 0 0 0 0 1 0 0 0 0 1 0 0 0 0.3 0"/><feBlend in2="BackgroundImageFix" result="effect1_dropShadow_674_5765"/><feBlend in="SourceGraphic" in2="effect1_dropShadow_674_5765" result="shape"/></filter></defs></svg>