<svg width="24" height="24" viewBox="0 0 24 24" fill="none" xmlns="http://www.w3.org/2000/svg">
<path d="M9.525 5.6625H3.225C2.625 5.6625 2.175 5.175 2.175 4.6125C2.175 4.05 2.625 3.5625 3.225 3.5625H9.5625C10.1625 3.5625 10.6125 4.05 10.6125 4.6125H12C12 3.2625 10.9125 2.1375 9.525 2.1375H7.05V0.75H5.625V2.175H3.225C1.8375 2.175 0.75 3.2625 0.75 4.6125C0.75 5.9625 1.8375 7.0875 3.225 7.0875H9.5625C10.1625 7.0875 10.6125 7.575 10.6125 8.1375C10.6125 8.7375 10.125 9.1875 9.5625 9.1875H3.225C2.625 9.1875 2.175 8.7 2.175 8.1375H0.75C0.75 9.4875 1.8375 10.6125 3.225 10.6125H5.7V12H7.125V10.575H9.6C10.95 10.575 12.075 9.4875 12.075 8.1C12 6.7875 10.9125 5.6625 9.525 5.6625ZM15.7875 8.5125L13.95 10.35L19.65 10.575L19.425 4.875L17.5875 6.7125L12.7125 3.6375L15.7875 8.5125ZM7.425 13.7625L7.6875 19.4625L9.4125 17.7375L14.4 20.7L11.4 15.75L13.1625 14.025L7.425 13.7625ZM20.0625 16.2L23.25 12.975L22.275 12L19.3875 14.9625L16.4625 12L15.525 12.975L18.675 16.2H17.25V17.625H18.675V19.05H17.25V20.4375H18.675V23.25H20.1V20.4375H21.525V19.05H20.1V17.625H21.525V16.2H20.1H20.0625Z" fill="white"/>
</svg>
