<svg width="35" height="35" viewBox="0 0 36 40" fill="none" xmlns="http://www.w3.org/2000/svg"><g filter="url(#a)"><path d="M19.176 4.698a2.305 2.305 0 0 0-2.352 0L11.12 8.083 5.336 11.33a2.305 2.305 0 0 0-1.176 2.038L4.24 20l-.08 6.632a2.305 2.305 0 0 0 1.176 2.038l5.784 3.246 5.704 3.386c.725.43 1.627.43 2.352 0l5.704-3.386 5.784-3.246a2.305 2.305 0 0 0 1.176-2.038L31.76 20l.08-6.632a2.305 2.305 0 0 0-1.176-2.038L24.88 8.083l-5.704-3.385Z" fill="#424242"/><path d="m11.267 8.331-.006.004-5.784 3.247a2.017 2.017 0 0 0-1.029 1.782l.08 6.633v.006l-.08 6.633a2.017 2.017 0 0 0 1.03 1.782l5.783 3.247.006.004 5.704 3.385a2.017 2.017 0 0 0 2.058 0l5.704-3.385.006-.004 5.784-3.247a2.016 2.016 0 0 0 1.029-1.782l-.08-6.633v-.006l.08-6.633a2.016 2.016 0 0 0-1.03-1.782L24.74 8.335l-.006-.004-5.704-3.385a2.017 2.017 0 0 0-2.058 0L11.267 8.33Z" stroke="#fff" stroke-opacity=".9" stroke-width=".576"/></g><path d="M25.704 15.03a6.132 6.132 0 0 1-1.819.51 3.26 3.26 0 0 0 1.39-1.814 6.082 6.082 0 0 1-2.004.795 3.154 3.154 0 0 0-1.05-.77 3.041 3.041 0 0 0-1.257-.27c-1.75 0-3.157 1.478-3.157 3.29 0 .255.03.51.077.755-2.62-.143-4.956-1.447-6.51-3.443a3.37 3.37 0 0 0-.43 1.66c0 1.142.558 2.15 1.408 2.741a3.091 3.091 0 0 1-1.428-.418v.04c0 1.599 1.085 2.924 2.531 3.228-.271.074-.55.112-.831.112-.206 0-.4-.02-.596-.05.4 1.304 1.564 2.25 2.951 2.282a6.17 6.17 0 0 1-3.92 1.406c-.264 0-.509-.01-.763-.04a8.683 8.683 0 0 0 4.85 1.474c5.806 0 8.984-5.01 8.984-9.359 0-.142 0-.285-.01-.428a6.965 6.965 0 0 0 1.584-1.7Z" fill="#A5A5A5"/><defs><filter id="a" x=".703" y=".918" width="34.594" height="38.163" filterUnits="userSpaceOnUse" color-interpolation-filters="sRGB"><feFlood flood-opacity="0" result="BackgroundImageFix"/><feColorMatrix in="SourceAlpha" values="0 0 0 0 0 0 0 0 0 0 0 0 0 0 0 0 0 0 127 0" result="hardAlpha"/><feOffset/><feGaussianBlur stdDeviation="1.729"/><feComposite in2="hardAlpha" operator="out"/><feColorMatrix values="0 0 0 0 1 0 0 0 0 1 0 0 0 0 1 0 0 0 0.3 0"/><feBlend in2="BackgroundImageFix" result="effect1_dropShadow_674_5771"/><feBlend in="SourceGraphic" in2="effect1_dropShadow_674_5771" result="shape"/></filter></defs></svg>