<svg width="20" height="12" viewBox="0 0 20 12" fill="none" xmlns="http://www.w3.org/2000/svg">
<path d="M19.5459 11.0603C19.2646 11.3415 18.8832 11.4995 18.4854 11.4995C18.0877 11.4995 17.7062 11.3415 17.4249 11.0603L9.99993 3.63533L2.57494 11.0603C2.29204 11.3336 1.91313 11.4848 1.51984 11.4813C1.12654 11.4779 0.750322 11.3202 0.472212 11.0421C0.194099 10.7639 0.0363463 10.3877 0.0329302 9.99444C0.0295122 9.60114 0.180704 9.22224 0.453941 8.93933L8.93943 0.453834C9.22073 0.172626 9.60219 0.0146532 9.99993 0.0146531C10.3977 0.0146531 10.7791 0.172626 11.0604 0.453833L19.5459 8.93933C19.8271 9.22062 19.9851 9.60209 19.9851 9.99983C19.9851 10.3976 19.8271 10.779 19.5459 11.0603Z" fill="black"/>
</svg>
