<svg width="40" height="41" viewBox="0 0 49 48" fill="none" xmlns="http://www.w3.org/2000/svg">
<path d="M41.5 13H7.5C6.39543 13 5.5 13.8954 5.5 15V37C5.5 38.1046 6.39543 39 7.5 39H41.5C42.6046 39 43.5 38.1046 43.5 37V15C43.5 13.8954 42.6046 13 41.5 13Z" stroke="black" stroke-width="4" stroke-linecap="round" stroke-linejoin="round"/>
<path d="M32.5 13C32.5 8 29 7 27.5 7H13C9.4 7 8.5 9.866 8.5 11.299V13M25.5 20H43.5V31H25.5V20ZM43.5 18V33V18Z" stroke="black" stroke-width="4" stroke-linecap="round" stroke-linejoin="round"/>
<path d="M34 27C34.8284 27 35.5 26.3284 35.5 25.5C35.5 24.6716 34.8284 24 34 24C33.1716 24 32.5 24.6716 32.5 25.5C32.5 26.3284 33.1716 27 34 27Z" fill="black"/>
</svg>
